#!OML:ASF I:\golf\golf\golf 2\Subject 1\2002-09-07\Subject1.ASF
:FULLY-SPECIFIED
:DEGREES
99
root 1.74435 17.9405 -9.23507 9.14307 -7.49125 -3.27207
lowerback -4.87569 1.44336 -4.47024
upperback 1.63938 2.10238 2.96171
thorax 4.17016 0.886026 5.7805
lowerneck -13.8303 1.78534 1.55913
upperneck 42.0266 5.5104 -7.46461
head 18.4668 1.43969 -2.7842
rclavicle -4.32357e-015 2.26615e-014
rhumerus -39.7083 35.3726 -101.295
rradius 97.7039
rwrist 5.44924
rhand -17.6045 19.8224
rfingers 7.12502
rthumb 8.65197 -9.9803
lclavicle -4.32357e-015 2.26615e-014
lhumerus -38.5643 -33.0455 102.439
lradius 92.0717
lwrist 15.8769
lhand -12.0668 43.3474
lfingers 7.12502
lthumb 13.9927 72.8565
rfemur -28.4852 1.47691 15.2114
rtibia 46.451
rfoot -8.98965 -8.05216
rtoes 0.345286
lfemur -13.5259 6.47103 -21.1004
ltibia 27.6209
lfoot -18.0265 6.07014
ltoes -2.79037
100
root 1.72287 17.9516 -9.20227 8.64529 -6.79104 -3.09243
lowerback -4.50427 1.27119 -4.98525
upperback 1.77478 1.89223 2.9498
thorax 4.11531 0.766294 6.0365
lowerneck -13.7549 1.7426 1.6444
upperneck 42.1051 5.38947 -7.38898
head 18.4809 1.41651 -2.79049
rclavicle 1.34677e-014 1.70955e-014
rhumerus -39.8006 35.0732 -101.53
rradius 97.6655
rwrist 5.58603
rhand -17.5236 19.694
rfingers 7.12502
rthumb 8.73006 -10.1054
lclavicle 1.34677e-014 1.70955e-014
lhumerus -38.7921 -33.4203 102.416
lradius 91.9832
lwrist 16.1965
lhand -12.5013 42.6803
lfingers 7.12502
lthumb 13.5738 72.2179
rfemur -28.215 1.00706 15.3821
rtibia 47.1428
rfoot -9.41182 -8.48501
rtoes 0.17002
lfemur -12.862 6.5374 -21.0128
ltibia 27.5908
lfoot -18.2403 5.2716
ltoes -2.30012
101
root 1.75186 17.9453 -9.2033 8.90354 -7.03691 -3.13342
lowerback -4.49353 1.41438 -4.69444
upperback 1.70289 2.07005 2.81167
thorax 4.02241 0.869565 5.73401
lowerneck -13.7371 1.73608 1.69386
upperneck 42.1563 5.32035 -7.27813
head 18.4959 1.41199 -2.76171
rclavicle 3.67752e-014 7.7526e-015
rhumerus -39.818 34.8735 -101.675
rradius 97.6228
rwrist 5.70396
rhand -17.3118 19.6487
rfingers 7.12502
rthumb 8.9345 -10.1421
lclavicle 3.67752e-014 7.7526e-015
lhumerus -38.7663 -33.7082 102.322
lradius 91.8564
lwrist 16.3715
lhand -12.952 42.3578
lfingers 7.12502
lthumb 13.1394 71.9239
rfemur -29.2171 0.798419 15.4545
rtibia 47.7686
rfoot -9.2477 -8.27011
rtoes 0.0371372
lfemur -13.1574 6.36512 -21.1748
ltibia 27.5973
lfoot -18.1202 5.62849
ltoes -1.98017
102
root 1.77442 17.9368 -9.1964 8.96636 -7.1822 -3.1523
lowerback -4.43835 1.47344 -4.55694
upperback 1.74673 2.14009 2.7695
thorax 4.03344 0.907249 5.61491
lowerneck -13.7111 1.76795 1.71299
upperneck 42.1453 5.38371 -7.3249
head 18.4911 1.43509 -2.77515
rclavicle -1.73191e-014 -1.19271e-014
rhumerus -39.8474 34.951 -101.753
rradius 97.5786
rwrist 5.8329
rhand -17.4952 19.8828
rfingers 7.12502
rthumb 8.75748 -9.91548
lclavicle -1.73191e-014 -1.19271e-014
lhumerus -38.5577 -33.8036 102.189
lradius 91.7492
lwrist 16.4388
lhand -12.709 42.7823
lfingers 7.12502
lthumb 13.3737 72.3331
rfemur -29.9185 0.6067 15.5462
rtibia 48.2897
rfoot -9.20766 -8.0311
rtoes 0.286563
lfemur -13.2029 6.32096 -21.2955
ltibia 27.558
lfoot -18.1004 5.85161
ltoes -1.97693
103
root 1.77364 17.936 -9.16637 8.76712 -7.06582 -3.1429
lowerback -4.37732 1.40823 -4.76895
upperback 1.90551 2.06146 2.84517
thorax 4.16621 0.853027 5.8126
lowerneck -13.7208 1.78188 1.63296
upperneck 42.1646 5.47466 -7.4169
head 18.5178 1.44566 -2.789
rclavicle -1.98785e-016 2.18663e-015
rhumerus -39.8213 35.1293 -101.758
rradius 97.4598
rwrist 5.98025
rhand -17.8586 20.1205
rfingers 7.12502
rthumb 8.40684 -9.69219
lclavicle -1.98785e-016 2.18663e-015
lhumerus -38.4802 -33.8101 102.092
lradius 91.7133
lwrist 16.4286
lhand -12.1852 43.0379
lfingers 7.12502
lthumb 13.8786 72.5548
rfemur -30.1175 0.467447 15.7373
rtibia 48.7391
rfoot -9.44197 -8.08853
rtoes 0.963057
lfemur -12.9434 6.47949 -21.2546
ltibia 27.7164
lfoot -18.3382 5.68476
ltoes -2.06602
104
root 1.78908 17.9285 -9.15322 8.77587 -7.0706 -3.24181
lowerback -4.30912 1.37809 -4.74849
upperback 1.96895 2.01284 2.96047
thorax 4.19736 0.825093 5.91873
lowerneck -13.6964 1.78824 1.46598
upperneck 42.1827 5.58818 -7.52342
head 18.535 1.44991 -2.78946
rclavicle -4.73604e-014 -6.55989e-015
rhumerus -39.7596 35.3881 -101.628
rradius 97.3653
rwrist 6.05674
rhand -17.9703 19.9142
rfingers 7.12502
rthumb 8.29897 -9.90276
lclavicle -4.73604e-014 -6.55989e-015
lhumerus -38.4531 -33.6261 102.144
lradius 91.6283
lwrist 16.3745
lhand -12.1089 42.8423
lfingers 7.12502
lthumb 13.9521 72.3542
rfemur -30.6568 0.26498 15.9876
rtibia 49.0785
rfoot -9.41594 -8.02568
rtoes 2.08054
lfemur -12.8694 6.33237 -21.2139
ltibia 27.6608
lfoot -18.2978 5.87172
ltoes -1.91762
105
root 1.81817 17.9171 -9.14906 9.16507 -7.28209 -3.39126
lowerback -4.59903 1.46574 -4.47723
upperback 1.95167 2.12223 2.99283
thorax 4.33613 0.88243 5.8169
lowerneck -13.666 1.76974 1.41313
upperneck 42.1571 5.61898 -7.62445
head 18.5186 1.44206 -2.82113
rclavicle -5.71506e-015 -1.96797e-014
rhumerus -39.6778 35.4975 -101.465
rradius 97.3317
rwrist 6.12197
rhand -18.0046 19.596
rfingers 7.12502
rthumb 8.26586 -10.2223
lclavicle -5.71506e-015 -1.96797e-014
lhumerus -38.3426 -33.5942 102.187
lradius 91.5075
lwrist 16.3369
lhand -12.2852 42.4362
lfingers 7.12502
lthumb 13.7822 71.9597
rfemur -31.7256 0.104101 16.2253
rtibia 49.3462
rfoot -9.22997 -7.82334
rtoes 2.54447
lfemur -13.2821 6.08355 -21.2668
ltibia 27.6501
lfoot -18.2406 6.31151
ltoes -1.70878
106
root 1.79396 17.9286 -9.10989 8.67737 -6.67339 -3.17474
lowerback -4.44062 1.31242 -5.04047
upperback 2.22189 1.94869 2.99122
thorax 4.53721 0.765589 6.1264
lowerneck -13.6748 1.7403 1.48891
upperneck 42.1579 5.53426 -7.58912
head 18.5135 1.42585 -2.83381
rclavicle 9.34288e-015 -1.17283e-014
rhumerus -39.6031 35.2993 -101.499
rradius 97.2747
rwrist 6.18553
rhand -17.9553 19.6486
rfingers 7.12502
rthumb 8.31348 -10.1679
lclavicle 9.34288e-015 -1.17283e-014
lhumerus -38.2575 -33.8267 102.028
lradius 91.4381
lwrist 16.2489
lhand -12.1862 42.0511
lfingers 7.12502
lthumb 13.8776 71.5681
rfemur -31.3751 -0.250095 16.3509
rtibia 49.4798
rfoot -9.43167 -8.1509
rtoes 1.39215
lfemur -12.5687 6.32176 -21.2326
ltibia 27.5391
lfoot -18.4757 5.52486
ltoes -2.2741
107
root 1.82136 17.9226 -9.11152 9.04457 -6.88035 -3.14017
lowerback -4.39669 1.43195 -4.76151
upperback 2.08421 2.09615 2.79984
thorax 4.36141 0.860091 5.76882
lowerneck -13.6177 1.73488 1.57585
upperneck 42.1793 5.47774 -7.54036
head 18.5048 1.42505 -2.83796
rclavicle -1.26228e-014 1.39149e-015
rhumerus -39.6634 35.0377 -101.65
rradius 97.2382
rwrist 6.24637
rhand -17.745 20.0279
rfingers 7.12502
rthumb 8.51647 -9.78038
lclavicle -1.26228e-014 1.39149e-015
lhumerus -38.1921 -33.9831 101.873
lradius 91.3221
lwrist 16.1538
lhand -11.7782 42.0647
lfingers 7.12502
lthumb 14.2708 71.5543
rfemur -32.4333 -0.452372 16.3985
rtibia 49.5272
rfoot -9.07176 -7.82404
rtoes -0.678198
lfemur -12.9916 6.08637 -21.4909
ltibia 27.4866
lfoot -18.133 6.00111
ltoes -3.09969
